<?xml version="1.0" standalone="no"?>
<!DOCTYPE svg PUBLIC "-//W3C//DTD SVG 20010904//EN"
 "http://www.w3.org/TR/2001/REC-SVG-20010904/DTD/svg10.dtd">
<svg version="1.0" xmlns="http://www.w3.org/2000/svg"
 width="300.000000pt" height="300.000000pt" viewBox="0 0 300.000000 300.000000"
 preserveAspectRatio="xMidYMid meet">
<metadata>
Created by potrace 1.11, written by Peter Selinger 2001-2013
</metadata>
<g transform="translate(0.000000,300.000000) scale(0.100000,-0.100000)"
fill="#000000" stroke="none">
<path d="M160 2979 c-178 -80 -211 -283 -75 -468 188 -255 281 -554 292 -941
13 -420 -72 -756 -261 -1034 -105 -155 -111 -168 -111 -266 0 -97 14 -136 72
-193 57 -58 96 -72 193 -72 98 0 111 6 263 109 260 176 583 266 958 266 397 0
717 -90 989 -278 116 -80 170 -102 253 -102 146 0 267 121 267 265 0 50 -29
136 -63 185 -90 132 -110 164 -146 236 -52 105 -86 197 -117 317 -130 515 -43
1118 214 1475 82 114 106 173 106 257 1 105 -42 179 -134 233 -39 24 -56 27
-130 27 -96 0 -137 -16 -248 -97 -145 -107 -392 -207 -612 -249 -145 -27 -449
-37 -601 -20 -300 34 -568 131 -762 273 -129 96 -248 122 -347 77z m450 -275
c0 -2 -9 0 -20 6 -16 9 -20 8 -21 -7 0 -16 -1 -16 -9 2 -14 33 -11 36 20 20
17 -9 30 -18 30 -21z m1830 14 c0 -15 -3 -19 -8 -11 -5 8 -13 9 -22 3 -8 -6
-19 -10 -25 -10 -8 0 40 36 53 39 1 1 2 -9 2 -21z m-1018 -395 l78 -78 80 80
80 80 52 -53 53 -52 -80 -80 -80 -80 115 -118 c63 -64 239 -242 390 -394 l275
-278 -53 -52 -52 -53 -78 78 c-42 42 -81 77 -85 77 -4 0 -7 -148 -7 -330 l0
-330 -270 0 -270 0 0 -70 0 -70 -75 0 -75 0 0 70 0 70 -270 0 -270 0 0 337 0
338 -85 -85 -85 -85 -52 53 -53 52 393 393 392 392 -82 82 -83 83 50 50 c27
27 54 50 59 50 6 0 46 -35 88 -77z"/>
<path d="M1202 1737 c-160 -160 -292 -295 -292 -300 0 -4 27 -7 60 -7 l60 0 0
-270 0 -270 195 0 195 0 0 270 0 270 335 2 335 3 -297 298 -298 297 -293 -293z"/>
<path d="M1570 1085 l0 -195 200 0 200 0 0 195 0 195 -200 0 -200 0 0 -195z
m322 75 l-4 -50 -118 0 -117 0 -7 31 c-14 72 -20 69 122 69 l127 0 -3 -50z"/>
</g>
</svg>
